<svg xmlns="http://www.w3.org/2000/svg" width="514" height="516" viewBox="0 0 514 516" version="1.1">
	<path d="M 229 8.432 C 183.560 14.217, 143.042 30.655, 106.088 58.296 C 92.647 68.350, 68.159 93.056, 57.815 107 C 21.280 156.249, 3.711 215.083, 7.916 274.103 C 12.494 338.368, 38.051 393.697, 83.629 438.014 C 121.523 474.859, 168.641 498.356, 221.459 506.746 C 237.414 509.281, 280.051 509.232, 295.500 506.661 C 332.740 500.466, 364.576 488.305, 394.933 468.681 C 456.960 428.583, 498.872 361.096, 507.488 287.441 C 510.542 261.330, 508.956 228.998, 503.397 204.066 C 480.706 102.296, 399.406 26.188, 295.500 9.444 C 281.808 7.238, 243.016 6.647, 229 8.432" stroke="none" fill="black" fill-rule="evenodd"/>
</svg>